<svg xmlns="http://www.w3.org/2000/svg" width="512" height="512" viewBox="0 0 512 512">
  <defs>
    <filter id="shadow" x="-20%" y="-20%" width="140%" height="140%">
      <feDropShadow dx="0" dy="14" stdDeviation="16" flood-color="#6d4428" flood-opacity="0.18"/>
    </filter>
  </defs>

  <rect width="512" height="512" rx="96" fill="#fff7eb"/>
  <circle cx="256" cy="256" r="208" fill="#f6e7c8"/>

  <g filter="url(#shadow)" fill="#7b4b2a">
    <ellipse cx="242" cy="294" rx="126" ry="90"/>
    <circle cx="334" cy="248" r="62"/>
    <polygon points="290,210 314,142 346,206"/>
    <polygon points="332,206 362,144 388,214"/>
    <rect x="150" y="338" width="30" height="86" rx="14"/>
    <rect x="214" y="350" width="30" height="76" rx="14"/>
    <rect x="292" y="348" width="30" height="78" rx="14"/>
    <path d="M115 310
             C70 285, 70 222, 126 220
             C162 220, 182 250, 182 282
             C182 309, 165 332, 141 343
             C126 349, 118 338, 123 326
             C128 317, 127 314, 115 310Z"/>
  </g>

  <g fill="#f4d6bc" opacity="0.95">
    <polygon points="303,204 314,168 331,201"/>
    <polygon points="343,201 361,170 373,207"/>
  </g>

  <g fill="#fff7eb">
    <ellipse cx="353" cy="245" rx="12" ry="16"/>
    <ellipse cx="372" cy="245" rx="12" ry="16"/>
  </g>

  <g fill="#4a2d1f">
    <circle cx="352" cy="247" r="4"/>
    <circle cx="371" cy="247" r="4"/>
    <ellipse cx="361" cy="264" rx="5" ry="4"/>
  </g>

  <g stroke="#4a2d1f" stroke-linecap="round" stroke-width="5">
    <line x1="339" y1="263" x2="314" y2="258"/>
    <line x1="339" y1="269" x2="312" y2="270"/>
    <line x1="383" y1="263" x2="408" y2="258"/>
    <line x1="383" y1="269" x2="410" y2="270"/>
  </g>
</svg>
